<svg id="Layer_1" data-name="Layer 1" xmlns="http://www.w3.org/2000/svg" width="340" height="241.4712" viewBox="0 0 340 241.4712"><defs><style>.cls-1{fill:#fff;}</style></defs><path class="cls-1" d="M217.0869,226.2622a5.1252,5.1252,0,0,0-1.8.4121,1.0526,1.0526,0,0,0-.6035,1.0156,1.1558,1.1558,0,0,0,.501,1.0235,2.7457,2.7457,0,0,0,1.53.3418,4.1372,4.1372,0,0,0,1.503-.2618,2.4213,2.4213,0,0,0,1.0859-.7978,2.1671,2.1671,0,0,0,.4082-1.3526V225.82a8.07,8.07,0,0,1-.9355.2154Q217.9561,226.1733,217.0869,226.2622Z"/><path class="cls-1" d="M182.6465,222.9458a3.3049,3.3049,0,0,0-3.1172,0,2.71,2.71,0,0,0-1.06,1.1084,3.5835,3.5835,0,0,0-.3808,1.7021,3.6454,3.6454,0,0,0,.3808,1.7071,2.763,2.763,0,0,0,1.06,1.1308,3.2472,3.2472,0,0,0,3.1172,0,2.7715,2.7715,0,0,0,1.0547-1.1308,3.6335,3.6335,0,0,0,.3818-1.7071,3.5718,3.5718,0,0,0-.3818-1.7021A2.7178,2.7178,0,0,0,182.6465,222.9458Z"/><path class="cls-1" d="M240.9434,222.8608a2.9577,2.9577,0,0,0-1.5381-.3681,3.227,3.227,0,0,0-1.6182.3945,2.7321,2.7321,0,0,0-1.082,1.1182,3.2206,3.2206,0,0,0-.3028.9267h5.7525a2.8391,2.8391,0,0,0-.2847-1.0957A2.3966,2.3966,0,0,0,240.9434,222.8608Z"/><path class="cls-1" d="M226.8359,226.55a3.6242,3.6242,0,0,0,2.66,0,1.9149,1.9149,0,0,0,.86-.7364,2.3863,2.3863,0,0,0,0-2.3232,1.9683,1.9683,0,0,0-.86-.7451,3.0968,3.0968,0,0,0-1.3213-.2617,2.9772,2.9772,0,0,0-1.2988.27,2.1349,2.1349,0,0,0-.8819.7588,2.0713,2.0713,0,0,0-.3193,1.1611,2.1044,2.1044,0,0,0,.3008,1.1484A1.94,1.94,0,0,0,226.8359,226.55Z"/><path class="cls-1" d="M306.6592,222.5815a2.6424,2.6424,0,0,0-1.2949.333,2.7373,2.7373,0,0,0-.98.9043,2.3242,2.3242,0,0,0-.377,1.3076v1.2149a2.3548,2.3548,0,0,0,.377,1.3086,2.7582,2.7582,0,0,0,.98.918,2.7078,2.7078,0,0,0,3.206-.44,4.0783,4.0783,0,0,0,.0039-4.7793A2.6056,2.6056,0,0,0,306.6592,222.5815Z"/><path class="cls-1" d="M324.2305,222.8608a2.9577,2.9577,0,0,0-1.5381-.3681,3.227,3.227,0,0,0-1.6182.3945,2.7321,2.7321,0,0,0-1.082,1.1182,3.2206,3.2206,0,0,0-.3028.9267h5.7525a2.8391,2.8391,0,0,0-.2847-1.0957A2.3966,2.3966,0,0,0,324.2305,222.8608Z"/><path class="cls-1" d="M337.5,0H2.5A2.5,2.5,0,0,0,0,2.5V238.97a2.5,2.5,0,0,0,2.5,2.5H164.5538l.0036,0h35.4411l.01.0008.0094-.0008H312.78l.0054.0008.0082-.0008h22.03l.0018,0H337.5a2.5,2.5,0,0,0,2.5-2.5V2.5A2.5,2.5,0,0,0,337.5,0ZM110.3892,236.47,79.355,150.1811l62.5786-.1773L169.99,161.226l15.7915,44.8581H164.5574A17.6826,17.6826,0,0,0,152.2467,236.47ZM213.7,74.147l43.8766-.125v30.7835Zm41.2175,34.9-56.0925,23.4066L171.2059,74.2682l19.5217-.0558,14.2778-.0406Zm-48.1625-39.88-.1817,0-41.734-29.1614L245.817,69.0552Zm-8.876.0254-29.0016.0827-1.6209-3.4072-12.8779-27.071Zm-34.0011,1.2965-15.532,6.4207,1.7258-35.507Zm2.147,4.5232,28.5165,60.0775-23.1064,21.3291-26.4395-10.5752,3.082-63.4122Zm-22.7876,4.0094L113.8405,91.1733,145.0922,40.845Zm-.2684,5.5217L140.03,145.0091l-59.7241.169L109.32,98.4526ZM105.922,94.4468l-20.5789,8.507,2.368-2.5653L132.0744,52.33Zm-4.52,7.2792L78.3027,138.9253v-27.65Zm72.64,128.7393H170.93l-4.895-11.5614v11.5614h-1.8711v-13.08h3.0678l4.9307,11.6228V217.3852h1.88Zm11.3486-2.1865a4.52,4.52,0,0,1-1.7373,1.7344,5.5548,5.5548,0,0,1-5.1347,0,4.5161,4.5161,0,0,1-1.7383-1.7344,5.4027,5.4027,0,0,1,0-5.0449,4.4388,4.4388,0,0,1,1.7383-1.7119,5.6556,5.6556,0,0,1,5.1347,0,4.4429,4.4429,0,0,1,1.7373,1.7119,5.4027,5.4027,0,0,1,0,5.0449Zm-10.5155-68.2323,24.0817-22.2291,59.7552-24.9358,10.8561,26.6449,27.1175,66.5576H191.0822Zm87.702-50.9315V84.477l48.7293,121.6071h-9.2213Zm-68.12,121.35H192.56v-13.08h1.8974Zm16.1172-5.2588v5.2588h-1.915v-5.6221a6.6458,6.6458,0,0,0-.044-.75,2.0814,2.0814,0,0,0-.2129-.7138,1.334,1.334,0,0,0-.5195-.5362,1.9044,1.9044,0,0,0-.9707-.208,2.049,2.049,0,0,0-1.0244.2344,1.8851,1.8851,0,0,0-.66.6211,2.6254,2.6254,0,0,0-.3545.8467,4.04,4.04,0,0,0-.1064.9131v5.2148h-1.9072V224.87a5.8124,5.8124,0,0,0-.0489-.7363,2.3455,2.3455,0,0,0-.2128-.7315,1.3093,1.3093,0,0,0-.51-.5537,1.7975,1.7975,0,0,0-.9483-.2129,2.0152,2.0152,0,0,0-1.02.2393,1.96,1.96,0,0,0-.6738.6338,2.7967,2.7967,0,0,0-.3721.8779,4.1623,4.1623,0,0,0-.1152.9707v5.1084h-1.9248v-9.418h1.9248v1.2674a3.5652,3.5652,0,0,1,.8643-.8728,3.2887,3.2887,0,0,1,1.8935-.5449,3.1032,3.1032,0,0,1,1.7783.457,2.5808,2.5808,0,0,1,.9707,1.2412c.0119.0309.0157.0676.0268.0991a3.5191,3.5191,0,0,1,1.1129-1.2612,3.2833,3.2833,0,0,1,1.8838-.5361,3.25,3.25,0,0,1,1.7471.4257,2.5585,2.5585,0,0,1,1.0107,1.1787,4.3472,4.3472,0,0,1,.3281,1.7471Zm9.6338,5.2588a1.3829,1.3829,0,0,1-.1553-.2265,2.2956,2.2956,0,0,1-.1816-.4034,2.5466,2.5466,0,0,1-.1058-.4529,2.7511,2.7511,0,0,1-.5016.4617,4.1867,4.1867,0,0,1-1.2852.5947,6.0966,6.0966,0,0,1-1.6631.212,4.788,4.788,0,0,1-1.8662-.337,2.8015,2.8015,0,0,1-1.2461-.9658,2.5656,2.5656,0,0,1-.4433-1.5166,2.4169,2.4169,0,0,1,.5009-1.5693,3.2236,3.2236,0,0,1,1.3829-.9629,7.5021,7.5021,0,0,1,2.0087-.4473,21.4238,21.4238,0,0,0,2.3633-.3281q.687-.16.6875-.5234v-.0176a1.2005,1.2005,0,0,0-.6123-1.0908,4.2785,4.2785,0,0,0-3.5957.0488,1.4729,1.4729,0,0,0-.6513,1.335h-1.8887a2.9834,2.9834,0,0,1,.5625-1.836,3.499,3.499,0,0,1,1.5566-1.1484,6.6968,6.6968,0,0,1,4.4287-.0352,3.5151,3.5151,0,0,1,1.5479,1.0684,2.71,2.71,0,0,1,.5762,1.7646v4.4961q0,.3282.0263.6338a2.8523,2.8523,0,0,0,.0977.5449,1.8083,1.8083,0,0,0,.1914.4522,1.4315,1.4315,0,0,0,.1816.249Zm5.7549-1.3037a2.02,2.02,0,0,0,.9883.2568l3.3261.293a5.3445,5.3445,0,0,1,1.4.2969,2.0855,2.0855,0,0,1,.9444.665,1.835,1.835,0,0,1,.3418,1.1572,2.0154,2.0154,0,0,1-.5459,1.4053,3.5613,3.5613,0,0,1-1.627.9317,9.2758,9.2758,0,0,1-2.6865.332,7.398,7.398,0,0,1-3.5029-.665,2.0149,2.0149,0,0,1-1.2061-1.8086,2.12,2.12,0,0,1,.08-.6123,1.7037,1.7037,0,0,1,.1953-.4434l1.791.2666a1.0977,1.0977,0,0,0-.124.2617,1.2338,1.2338,0,0,0-.0625.4209q0,.63.7715.8955a6.7928,6.7928,0,0,0,2.1377.2656,8.3574,8.3574,0,0,0,1.6621-.1367,2.4221,2.4221,0,0,0,.9892-.3945.7562.7562,0,0,0,.3282-.6035.6091.6091,0,0,0-.4532-.6563,5.5039,5.5039,0,0,0-1.09-.1855l-3.5742-.293a2.718,2.718,0,0,1-1.52-.5586,1.49,1.49,0,0,1-.59-1.206,1.6332,1.6332,0,0,1,.2305-.8428,2.6616,2.6616,0,0,1,.5361-.6563,2.2981,2.2981,0,0,1,.2635-.1983,3.3232,3.3232,0,0,1-.6531-.7548,3.5108,3.5108,0,0,1-.5274-1.9111,3.5662,3.5662,0,0,1,.545-1.95,3.7436,3.7436,0,0,1,1.5078-1.3486,4.8063,4.8063,0,0,1,2.2031-.4873,4.6049,4.6049,0,0,1,1.8584.3544,3.5771,3.5771,0,0,1,1.29.9043c.0456.0524.066.1072.1056.16l.16-1.2685h1.747l-.7177,3.6807a5.3631,5.3631,0,0,1-.7139,1.8574,3.7074,3.7074,0,0,1-1.4014,1.3076,4.5594,4.5594,0,0,1-2.1953.48,5.6222,5.6222,0,0,1-2.0663-.3577c-.0373.0274-.0707.0448-.1105.0784a.7294.7294,0,0,0-.288.5713A.6009.6009,0,0,0,225.9629,229.1616Zm18.2129-3.0332a2.0521,2.0521,0,0,1-.0264.3018h-7.7628a3.5352,3.5352,0,0,0,.3048,1.0771,2.6516,2.6516,0,0,0,1.0732,1.14,3.3252,3.3252,0,0,0,1.6758.3994,4.5115,4.5115,0,0,0,1.1846-.1377,2.5981,2.5981,0,0,0,.8242-.3682,1.7792,1.7792,0,0,0,.4922-.501,1.2472,1.2472,0,0,0,.1953-.5361h1.9151a2.7912,2.7912,0,0,1-.377,1.14,3.5253,3.5253,0,0,1-.9131,1.02,4.6251,4.6251,0,0,1-1.4365.7275,6.4194,6.4194,0,0,1-1.9463.27,5.1934,5.1934,0,0,1-2.581-.6211,4.426,4.426,0,0,1-1.7286-1.7246,5.482,5.482,0,0,1,.0088-5.0859,4.4525,4.4525,0,0,1,1.7471-1.7158,5.2107,5.2107,0,0,1,2.5625-.6162,5.0144,5.0144,0,0,1,2.5488.621,4.26,4.26,0,0,1,1.6631,1.711,5.2216,5.2216,0,0,1,.585,2.51Q244.1846,225.9073,244.1758,226.1284Zm13.7353,4.3369a1.3778,1.3778,0,0,1-.1552-.2265,2.2883,2.2883,0,0,1-.1817-.4034,2.5466,2.5466,0,0,1-.1058-.4529,2.7511,2.7511,0,0,1-.5016.4617,4.1845,4.1845,0,0,1-1.2852.5947,6.0958,6.0958,0,0,1-1.663.212,4.7885,4.7885,0,0,1-1.8663-.337,2.802,2.802,0,0,1-1.2461-.9658,2.5663,2.5663,0,0,1-.4433-1.5166,2.4164,2.4164,0,0,1,.501-1.5693,3.2232,3.2232,0,0,1,1.3828-.9629,7.502,7.502,0,0,1,2.0088-.4473,21.4276,21.4276,0,0,0,2.3633-.3281q.687-.16.6874-.5234v-.0176a1.2005,1.2005,0,0,0-.6123-1.0908,4.2785,4.2785,0,0,0-3.5957.0488,1.4731,1.4731,0,0,0-.6513,1.335h-1.8887a2.9834,2.9834,0,0,1,.5625-1.836,3.499,3.499,0,0,1,1.5566-1.1484,6.6971,6.6971,0,0,1,4.4288-.0352,3.5153,3.5153,0,0,1,1.5478,1.0684,2.71,2.71,0,0,1,.5762,1.7646v4.4961q0,.3282.0263.6338a2.8523,2.8523,0,0,0,.0977.5449,1.8083,1.8083,0,0,0,.1914.4522,1.4368,1.4368,0,0,0,.1816.249Zm8.4541,0h-2.5537l-3.13-9.418h1.9864l2.418,8.0973,2.3437-8.0973h1.9863Zm11.5743,0a1.37,1.37,0,0,1-.1553-.2265,2.2883,2.2883,0,0,1-.1817-.4034,2.5554,2.5554,0,0,1-.1058-.4529,2.7511,2.7511,0,0,1-.5016.4617,4.185,4.185,0,0,1-1.2851.5947,6.0966,6.0966,0,0,1-1.6631.212,4.7877,4.7877,0,0,1-1.8662-.337,2.8009,2.8009,0,0,1-1.2461-.9658,2.5657,2.5657,0,0,1-.4434-1.5166,2.4164,2.4164,0,0,1,.501-1.5693,3.2232,3.2232,0,0,1,1.3828-.9629,7.5029,7.5029,0,0,1,2.0088-.4473,21.4238,21.4238,0,0,0,2.3633-.3281q.687-.16.6875-.5234v-.0176a1.2005,1.2005,0,0,0-.6123-1.0908,4.2785,4.2785,0,0,0-3.5957.0488,1.473,1.473,0,0,0-.6514,1.335h-1.8887a2.9834,2.9834,0,0,1,.5625-1.836,3.4993,3.4993,0,0,1,1.5567-1.1484,6.6968,6.6968,0,0,1,4.4287-.0352,3.5147,3.5147,0,0,1,1.5478,1.0684,2.71,2.71,0,0,1,.5762,1.7646v4.4961q0,.3282.0264.6338a2.8449,2.8449,0,0,0,.0976.5449,1.8083,1.8083,0,0,0,.1914.4522,1.4308,1.4308,0,0,0,.1817.249Zm5.8388,0h-1.8974v-9.418h1.8974Zm-.0928-11.6387a1.4756,1.4756,0,0,1-1.7031,0,.8877.8877,0,0,1-.3594-.75.8785.8785,0,0,1,.3594-.74,1.4756,1.4756,0,0,1,1.7031,0,.8774.8774,0,0,1,.3584.74A.8866.8866,0,0,1,283.6855,218.8266Zm4.6768,11.6387h-1.8975v-13.86h1.8975Zm9.752,0a1.37,1.37,0,0,1-.1553-.2265,2.2956,2.2956,0,0,1-.1817-.4034,2.5554,2.5554,0,0,1-.1058-.4529,2.7511,2.7511,0,0,1-.5016.4617,4.185,4.185,0,0,1-1.2851.5947,6.0966,6.0966,0,0,1-1.6631.212,4.7877,4.7877,0,0,1-1.8662-.337,2.8009,2.8009,0,0,1-1.2461-.9658,2.5657,2.5657,0,0,1-.4434-1.5166,2.4164,2.4164,0,0,1,.501-1.5693,3.2232,3.2232,0,0,1,1.3828-.9629,7.5029,7.5029,0,0,1,2.0088-.4473,21.4238,21.4238,0,0,0,2.3633-.3281q.687-.16.6875-.5234v-.0176a1.2005,1.2005,0,0,0-.6123-1.0908,4.2785,4.2785,0,0,0-3.5957.0488,1.473,1.473,0,0,0-.6514,1.335h-1.8887a2.9834,2.9834,0,0,1,.5625-1.836,3.4993,3.4993,0,0,1,1.5567-1.1484,6.6968,6.6968,0,0,1,4.4287-.0352,3.5147,3.5147,0,0,1,1.5478,1.0684,2.71,2.71,0,0,1,.5762,1.7646v4.4961q0,.3282.0264.6338a2.8527,2.8527,0,0,0,.0976.5449,1.8083,1.8083,0,0,0,.1914.4522,1.4308,1.4308,0,0,0,.1817.249Zm12.624-2.04a4.0675,4.0675,0,0,1-1.5606,1.6631,4.2218,4.2218,0,0,1-2.1465.5625,3.9454,3.9454,0,0,1-2.039-.5538,4.2205,4.2205,0,0,1-.9844-.83v1.1979h-1.9336v-13.86h1.9336v5.6275a4.1177,4.1177,0,0,1,.9844-.8033,4.0712,4.0712,0,0,1,2.039-.5322,4.1308,4.1308,0,0,1,3.6934,2.208,5.3683,5.3683,0,0,1,.5986,2.6338A5.6489,5.6489,0,0,1,310.7383,228.4253Zm4.7637,2.04h-1.8975v-13.86h1.8975Zm11.9609-4.3369a2.0521,2.0521,0,0,1-.0264.3018h-7.7628a3.538,3.538,0,0,0,.3048,1.0771,2.6513,2.6513,0,0,0,1.0733,1.14,3.3248,3.3248,0,0,0,1.6757.3994,4.5115,4.5115,0,0,0,1.1846-.1377,2.5981,2.5981,0,0,0,.8242-.3682,1.7792,1.7792,0,0,0,.4922-.501,1.2472,1.2472,0,0,0,.1953-.5361h1.9151a2.7912,2.7912,0,0,1-.377,1.14,3.5253,3.5253,0,0,1-.9131,1.02,4.624,4.624,0,0,1-1.4365.7275,6.4189,6.4189,0,0,1-1.9463.27,5.1934,5.1934,0,0,1-2.581-.6211,4.426,4.426,0,0,1-1.7286-1.7246,5.4827,5.4827,0,0,1,.0088-5.0859,4.4525,4.4525,0,0,1,1.7471-1.7158,5.2107,5.2107,0,0,1,2.5625-.6162,5.0144,5.0144,0,0,1,2.5488.621,4.26,4.26,0,0,1,1.6631,1.711,5.2216,5.2216,0,0,1,.585,2.51Q327.4717,225.9073,327.4629,226.1284ZM335,206.0841H316.6929L262.4222,70.6493l-.0069-.0175-.0188-.0469-.0042-.0083c-.011-.0268-.0253-.0517-.0371-.0782-.0269-.06-.0553-.119-.0868-.1768-.0185-.0338-.0357-.0678-.0558-.1008-.0126-.021-.0257-.0413-.0389-.0618-.0115-.0178-.0221-.0357-.0341-.0532-.0295-.0433-.0632-.0829-.0954-.1243-.0267-.0343-.0514-.0695-.08-.1024-.0186-.0216-.0373-.0425-.0566-.0633-.0162-.0175-.032-.0349-.0487-.0519-.006-.0061-.01-.0137-.0162-.02-.0206-.02-.0456-.0348-.0667-.0545l-.0122-.0109c-.0345-.0317-.0661-.0654-.1025-.0953-.0178-.0146-.0349-.03-.0532-.0442-.0292-.0227-.0619-.0409-.0923-.0624-.0392-.0276-.0788-.0534-.1194-.0787-.029-.0182-.0556-.0391-.0855-.0561-.0637-.0363-.1311-.0644-.1979-.0949-.0441-.02-.0871-.0411-.1323-.0586-.0206-.008-.039-.02-.06-.0269l-.0073-.0026-.0417-.015-111.97-40.167c-.0179-.0064-.0363-.009-.0542-.015-.0257-.0086-.0509-.0178-.0769-.0256-.0385-.0114-.0773-.0184-.1162-.028-.0554-.0136-.11-.0282-.166-.038-.0156-.0027-.0311-.0071-.0468-.01l-.0087-.0024c-.004-.0006-.0079,0-.0119,0-.0258-.0038-.0521-.0046-.078-.0076-.033-.0038-.0656-.0073-.0986-.01-.058-.0043-.1154-.0055-.1732-.0059-.0248,0-.05-.0042-.0744-.0036-.0273.0007-.0547.0062-.0821.0078l-.0268.0007c-.0191.0013-.0382,0-.0574.0016l-.007,0-.0066,0c-.0532.0052-.1051.0178-.1577.0263-.0307.005-.0613.0043-.092.01l-.0017.0005-.0211.0061c-.0091.0019-.0174.0057-.0265.0077-.034.0075-.068.014-.1017.023-.0309.0082-.06.0206-.091.03l-.0379.0125c-.0285.0092-.0573.0158-.0854.026-.017.0063-.035.01-.0518.017l-.0221.0095c-.0351.0141-.0685.0319-.1031.0476-.0421.0191-.0829.0406-.1242.0621-.0233.0122-.0474.0223-.07.0353-.0151.0085-.0318.0146-.0467.0234l-.022.0143c-.0163.01-.0311.0215-.0472.0317-.0244.0156-.0465.0339-.07.05-.0364.025-.0728.049-.1081.0762-.0237.0183-.0486.0341-.0718.0533-.0137.0114-.0259.0241-.0394.0358-.0362.0312-.0688.0664-.1033.1-.02.0191-.04.0367-.0595.0565-.013.0135-.0286.0232-.0414.0372L73.9658,107.9072l-.0072.0093a2.5,2.5,0,0,0-.2453.3168l-.0218.0334c-.018.0284-.0307.0593-.0475.0884a2.4676,2.4676,0,0,0-.1193.2265c-.0122.0271-.0242.0539-.0354.0814-.0132.0325-.023.0659-.0348.099-.0228.0634-.0436.1271-.0612.1924-.0116.0434-.0223.0865-.0317.13-.0064.0306-.0135.0608-.0188.0916-.01.0551-.0147.1111-.0207.1672s-.01.11-.0123.1655c-.0013.0315-.0071.0622-.0071.0939v38.0879l0,0,0,.0005.0019.0216a2.4981,2.4981,0,0,0,.0343.3973c.0023.0138.0069.0272.01.0409.0082.044.0226.0858.0332.1292.0193.0794.0366.16.0634.236l.0052.02L105.0757,236.47H5V219.9731H40.9263a2.5,2.5,0,1,0,0-5H5v-16.497H25.1616a2.5,2.5,0,0,0,0-5H5V176.978H25.1616a2.5,2.5,0,0,0,0-5H5V155.4809H40.9263a2.5,2.5,0,0,0,0-5H5v-16.497H25.1616a2.5,2.5,0,0,0,0-5H5V112.4863H25.1616a2.5,2.5,0,0,0,0-5H5V90.9892H40.9263a2.5,2.5,0,1,0,0-5H5V69.4917H25.1616a2.5,2.5,0,1,0,0-5H5V47.9946H25.1616a2.5,2.5,0,0,0,0-5H5V26.4971H40.9263a2.5,2.5,0,0,0,0-5H5V5H335Z"/><path class="cls-1" d="M294.9932,226.2622a5.1241,5.1241,0,0,0-1.8.4121,1.0525,1.0525,0,0,0-.6036,1.0156,1.1558,1.1558,0,0,0,.501,1.0235,2.746,2.746,0,0,0,1.53.3418,4.1362,4.1362,0,0,0,1.5029-.2618,2.421,2.421,0,0,0,1.086-.7978,2.1678,2.1678,0,0,0,.4082-1.3526V225.82a8.0768,8.0768,0,0,1-.9356.2154Q295.8623,226.1733,294.9932,226.2622Z"/><path class="cls-1" d="M274.8184,226.2622a5.1241,5.1241,0,0,0-1.8.4121,1.0525,1.0525,0,0,0-.6036,1.0156,1.1558,1.1558,0,0,0,.501,1.0235,2.746,2.746,0,0,0,1.53.3418,4.1362,4.1362,0,0,0,1.5029-.2618,2.421,2.421,0,0,0,1.086-.7978,2.1678,2.1678,0,0,0,.4082-1.3526V225.82a8.0768,8.0768,0,0,1-.9356.2154Q275.6875,226.1733,274.8184,226.2622Z"/><path class="cls-1" d="M254.79,226.2622a5.1252,5.1252,0,0,0-1.8.4121,1.0526,1.0526,0,0,0-.6035,1.0156,1.1558,1.1558,0,0,0,.501,1.0235,2.7458,2.7458,0,0,0,1.53.3418,4.1362,4.1362,0,0,0,1.5029-.2618,2.4207,2.4207,0,0,0,1.0859-.7978,2.1671,2.1671,0,0,0,.4082-1.3526V225.82a8.07,8.07,0,0,1-.9355.2154Q255.6592,226.1733,254.79,226.2622Z"/></svg>