<?xml version="1.0" encoding="utf-8"?>
<!-- Generator: Adobe Illustrator 25.0.0, SVG Export Plug-In . SVG Version: 6.00 Build 0)  -->
<svg version="1.1" id="Layer_1" xmlns="http://www.w3.org/2000/svg" xmlns:xlink="http://www.w3.org/1999/xlink" x="0px" y="0px"
	 viewBox="0 0 340 241.5" style="enable-background:new 0 0 340 241.5;" xml:space="preserve">
<style type="text/css">
	.st0{fill:#FFFFFF;}
</style>
<g>
	<path class="st0" d="M308.6,222.7c-0.5,0-0.9,0.1-1.3,0.3c-0.4,0.2-0.7,0.5-1,0.9c-0.3,0.4-0.4,0.8-0.4,1.3v1.1c0,0,0,0,0,0
		s0,0,0,0c0,0.5,0.1,0.9,0.4,1.3c0.3,0.4,0.6,0.7,1,0.9c0.4,0.2,0.8,0.3,1.3,0.3c0.8,0,1.4-0.3,1.9-0.8c0.5-0.5,0.8-1.3,0.8-2.4
		c0-1.1-0.3-1.9-0.8-2.4C310.1,222.9,309.4,222.7,308.6,222.7z"/>
	<g>
		<path class="st0" d="M296.8,226.4c-0.8,0.1-1.4,0.2-1.8,0.4s-0.6,0.6-0.6,1c0,0.5,0.2,0.8,0.5,1c0.3,0.2,0.9,0.3,1.6,0.3
			c0.6,0,1.1-0.1,1.5-0.3s0.8-0.4,1.1-0.8c0.3-0.4,0.4-0.8,0.4-1.4V226c-0.3,0.1-0.6,0.2-0.9,0.2
			C297.9,226.3,297.4,226.3,296.8,226.4z"/>
		<path class="st0" d="M182.9,223c-0.5-0.3-1-0.4-1.6-0.4c-0.6,0-1.1,0.1-1.6,0.4s-0.8,0.6-1.1,1.1c-0.3,0.5-0.4,1.1-0.4,1.7
			c0,0.7,0.1,1.2,0.4,1.7c0.3,0.5,0.6,0.9,1.1,1.1c0.5,0.3,1,0.4,1.6,0.4c0.6,0,1.1-0.1,1.6-0.4c0.5-0.3,0.8-0.7,1.1-1.1
			c0.3-0.5,0.4-1.1,0.4-1.7c0-0.7-0.1-1.2-0.4-1.7C183.7,223.7,183.4,223.3,182.9,223z"/>
		<path class="st0" d="M326.5,222.9c-0.4-0.2-0.9-0.4-1.6-0.4s-1.2,0.1-1.6,0.4s-0.8,0.6-1.1,1.1c-0.1,0.3-0.2,0.6-0.3,0.9h5.8
			c0-0.4-0.1-0.8-0.3-1.1C327.2,223.5,326.9,223.2,326.5,222.9z"/>
		<path class="st0" d="M337.5,0H2.5C1.1,0,0,1.1,0,2.5V239c0,1.4,1.1,2.5,2.5,2.5h162.1h0H200l0,0l0,0h112.8l0,0l0,0h22h0h2.7
			c1.4,0,2.5-1.1,2.5-2.5V2.5C340,1.1,338.9,0,337.5,0z M110.4,236.5l-31-86.3l62.6-0.2l28.1,11.2l15.8,44.9h-21.2
			c-9.8,0-17.7,7.9-17.7,17.7c0,4.8,1.9,9.4,5.4,12.7H110.4z M213.7,74.1l43.9-0.1v30.8L213.7,74.1z M254.9,109l-56.1,23.4
			l-27.6-58.2l19.5-0.1l14.3,0L254.9,109z M206.8,69.2h-0.2L164.8,40l81,29L206.8,69.2z M197.9,69.2l-29,0.1l-1.6-3.4l-12.9-27.1
			L197.9,69.2z M163.9,70.5l-15.5,6.4l1.7-35.5L163.9,70.5z M166,75l28.5,60.1l-23.1,21.3L145,145.8l3.1-63.4L166,75z M143.2,79
			l-29.4,12.2l31.3-50.3L143.2,79z M143,84.5L140,145l-59.7,0.2l29-46.7L143,84.5z M105.9,94.4L85.3,103l2.4-2.6l44.4-48.1
			L105.9,94.4z M101.4,101.7l-23.1,37.2v-27.6L101.4,101.7z M174.2,230.7H171l-5-11.7v11.7h-1.9v-13.3h3.1l5,11.8v-11.8h1.9V230.7z
			 M185.7,228.4c-0.4,0.7-1,1.3-1.8,1.8s-1.6,0.6-2.6,0.6c-1,0-1.9-0.2-2.6-0.6s-1.3-1-1.8-1.8s-0.6-1.6-0.6-2.6
			c0-1,0.2-1.8,0.6-2.6c0.4-0.7,1-1.3,1.8-1.7s1.6-0.6,2.6-0.6c1,0,1.9,0.2,2.6,0.6s1.3,1,1.8,1.7c0.4,0.7,0.6,1.6,0.6,2.6
			C186.3,226.8,186.1,227.7,185.7,228.4z M174.9,160l24.1-22.2l59.8-24.9l10.9,26.6l27.1,66.6H191.1L174.9,160z M194.9,230.7H193
			v-13.3h1.9V230.7z M211.3,225.3c0,0.4,0,0.8,0,1.4v4h-1.9v-4c0-0.4,0-0.7,0-1c0-0.3,0-0.5,0-0.7c0-0.2,0-0.5,0-0.8
			c0-0.3-0.1-0.5-0.2-0.7c-0.1-0.2-0.3-0.4-0.5-0.5s-0.6-0.2-1-0.2c-0.4,0-0.8,0.1-1,0.2c-0.3,0.2-0.5,0.4-0.7,0.6
			c-0.2,0.3-0.3,0.5-0.4,0.9c-0.1,0.3-0.1,0.6-0.1,0.9c0,0,0,0,0,0.1c0,0.4,0,0.9,0,1.4v3.8h-1.9v-4c0-0.4,0-0.7,0-0.9
			c0-0.3,0-0.5,0-0.7c0-0.2,0-0.5,0-0.7c0-0.3-0.1-0.5-0.2-0.7c-0.1-0.2-0.3-0.4-0.5-0.6c-0.2-0.1-0.6-0.2-1-0.2
			c-0.4,0-0.8,0.1-1,0.2c-0.3,0.2-0.5,0.4-0.7,0.6c-0.2,0.3-0.3,0.6-0.4,0.9c-0.1,0.3-0.1,0.7-0.1,1v5.2h-2v-9.6h2v1.3
			c0.2-0.3,0.5-0.6,0.9-0.9c0.5-0.4,1.2-0.6,1.9-0.6c0.8,0,1.4,0.2,1.8,0.5c0.5,0.3,0.8,0.7,1,1.3c0,0,0,0.1,0,0.1
			c0.3-0.5,0.6-1,1.1-1.3c0.5-0.4,1.2-0.5,1.9-0.5c0.7,0,1.3,0.1,1.8,0.4c0.5,0.3,0.8,0.7,1,1.2s0.3,1.1,0.3,1.8
			C211.3,224.6,211.3,224.9,211.3,225.3z M221,230.7c0,0-0.1-0.1-0.2-0.2c-0.1-0.1-0.1-0.3-0.2-0.4c0-0.1-0.1-0.3-0.1-0.5
			c-0.1,0.2-0.3,0.3-0.5,0.5c-0.4,0.3-0.8,0.5-1.3,0.6c-0.5,0.1-1.1,0.2-1.7,0.2c-0.7,0-1.4-0.1-1.9-0.3c-0.5-0.2-1-0.6-1.3-1
			s-0.4-0.9-0.4-1.5c0-0.6,0.2-1.2,0.5-1.6s0.8-0.7,1.4-1c0.6-0.2,1.3-0.4,2-0.5c1.1-0.1,1.9-0.2,2.4-0.3c0.5-0.1,0.7-0.3,0.7-0.5
			c0,0,0,0,0,0c0-0.5-0.2-0.9-0.6-1.1c-0.4-0.3-1-0.4-1.8-0.4c-0.8,0-1.4,0.1-1.9,0.4c-0.4,0.3-0.7,0.7-0.7,1.4h-1.9
			c0-0.7,0.2-1.4,0.6-1.9c0.4-0.5,0.9-0.9,1.6-1.2c0.7-0.3,1.4-0.4,2.3-0.4c0.8,0,1.5,0.1,2.2,0.4c0.7,0.2,1.2,0.6,1.6,1.1
			c0.4,0.5,0.6,1.1,0.6,1.8c0,0.1,0,0.2,0,0.4s0,0.2,0,0.4v3.8c0,0.2,0,0.4,0,0.6c0,0.2,0.1,0.4,0.1,0.6c0.1,0.2,0.1,0.3,0.2,0.5
			c0.1,0.1,0.1,0.2,0.2,0.3H221z M226.9,229.3c0.2,0.1,0.5,0.2,1,0.3l3.4,0.3c0.5,0,1,0.1,1.4,0.3c0.4,0.2,0.7,0.4,1,0.7
			c0.2,0.3,0.3,0.7,0.3,1.2c0,0.5-0.2,1-0.6,1.4s-0.9,0.7-1.7,0.9c-0.7,0.2-1.6,0.3-2.7,0.3c-1.6,0-2.7-0.2-3.6-0.7
			c-0.8-0.5-1.2-1.1-1.2-1.8c0-0.2,0-0.4,0.1-0.6c0.1-0.2,0.1-0.3,0.2-0.5l1.8,0.3c0,0.1-0.1,0.1-0.1,0.3c0,0.1-0.1,0.3-0.1,0.4
			c0,0.4,0.3,0.7,0.8,0.9c0.5,0.2,1.2,0.3,2.2,0.3c0.7,0,1.2,0,1.7-0.1s0.8-0.2,1-0.4c0.2-0.2,0.3-0.4,0.3-0.6
			c0-0.4-0.2-0.6-0.5-0.7c-0.3-0.1-0.7-0.2-1.1-0.2L227,231c-0.6-0.1-1.1-0.2-1.5-0.6c-0.4-0.3-0.6-0.7-0.6-1.2
			c0-0.3,0.1-0.6,0.2-0.9c0.2-0.3,0.3-0.5,0.5-0.7c0.1-0.1,0.2-0.1,0.3-0.2c-0.3-0.2-0.5-0.5-0.7-0.8c-0.4-0.6-0.5-1.2-0.5-1.9
			c0-0.7,0.2-1.4,0.6-2s0.9-1,1.5-1.4c0.7-0.3,1.4-0.5,2.2-0.5c0.7,0,1.3,0.1,1.9,0.4c0.5,0.2,1,0.5,1.3,0.9c0,0.1,0.1,0.1,0.1,0.2
			l0.2-1.3h1.8l-0.7,3.7c-0.1,0.7-0.4,1.3-0.7,1.9c-0.4,0.6-0.8,1-1.4,1.3c-0.6,0.3-1.3,0.5-2.2,0.5c-0.8,0-1.5-0.1-2.1-0.4
			c0,0-0.1,0-0.1,0.1c-0.2,0.2-0.3,0.4-0.3,0.6C226.6,229,226.7,229.2,226.9,229.3z M245.4,226.3c0,0.2,0,0.3,0,0.3h-7.9
			c0.1,0.4,0.1,0.8,0.3,1.1c0.3,0.5,0.6,0.9,1.1,1.2c0.5,0.3,1,0.4,1.7,0.4c0.5,0,0.9,0,1.2-0.1c0.3-0.1,0.6-0.2,0.8-0.4
			c0.2-0.2,0.4-0.3,0.5-0.5c0.1-0.2,0.2-0.4,0.2-0.5h1.9c0,0.4-0.2,0.8-0.4,1.2c-0.2,0.4-0.5,0.7-0.9,1c-0.4,0.3-0.9,0.6-1.5,0.7
			c-0.6,0.2-1.2,0.3-2,0.3c-1,0-1.9-0.2-2.6-0.6s-1.3-1-1.8-1.8c-0.4-0.7-0.6-1.6-0.6-2.6c0-1,0.2-1.8,0.6-2.6
			c0.4-0.7,1-1.3,1.8-1.7c0.8-0.4,1.6-0.6,2.6-0.6c1,0,1.9,0.2,2.6,0.6c0.7,0.4,1.3,1,1.7,1.7c0.4,0.7,0.6,1.6,0.6,2.5
			C245.4,226,245.4,226.1,245.4,226.3z M259.5,230.7l-0.9-3.4h-4.4l-0.9,3.4h-2l3.5-13.3h3.1l3.5,13.3H259.5z M267.7,230.7h-2.6
			l-3.2-9.6h2l2.5,8.2l2.4-8.2h2L267.7,230.7z M279.5,230.7c0,0-0.1-0.1-0.2-0.2c-0.1-0.1-0.1-0.3-0.2-0.4c0-0.1-0.1-0.3-0.1-0.5
			c-0.1,0.2-0.3,0.3-0.5,0.5c-0.4,0.3-0.8,0.5-1.3,0.6c-0.5,0.1-1.1,0.2-1.7,0.2c-0.7,0-1.4-0.1-1.9-0.3c-0.5-0.2-1-0.6-1.3-1
			s-0.4-0.9-0.4-1.5c0-0.6,0.2-1.2,0.5-1.6s0.8-0.7,1.4-1c0.6-0.2,1.3-0.4,2-0.5c1.1-0.1,1.9-0.2,2.4-0.3c0.5-0.1,0.7-0.3,0.7-0.5
			c0,0,0,0,0,0c0-0.5-0.2-0.9-0.6-1.1c-0.4-0.3-1-0.4-1.8-0.4c-0.8,0-1.4,0.1-1.9,0.4c-0.4,0.3-0.7,0.7-0.7,1.4h-1.9
			c0-0.7,0.2-1.4,0.6-1.9c0.4-0.5,0.9-0.9,1.6-1.2c0.7-0.3,1.4-0.4,2.3-0.4c0.8,0,1.5,0.1,2.2,0.4c0.7,0.2,1.2,0.6,1.6,1.1
			c0.4,0.5,0.6,1.1,0.6,1.8c0,0.1,0,0.2,0,0.4s0,0.2,0,0.4v3.8c0,0.2,0,0.4,0,0.6c0,0.2,0.1,0.4,0.1,0.6c0.1,0.2,0.1,0.3,0.2,0.5
			c0.1,0.1,0.1,0.2,0.2,0.3H279.5z M285.4,230.7h-1.9v-9.6h1.9V230.7z M285.3,218.9c-0.2,0.2-0.5,0.3-0.9,0.3
			c-0.3,0-0.6-0.1-0.9-0.3s-0.4-0.4-0.4-0.8c0-0.3,0.1-0.6,0.4-0.8c0.2-0.2,0.5-0.3,0.9-0.3c0.3,0,0.6,0.1,0.9,0.3
			c0.2,0.2,0.4,0.4,0.4,0.8C285.7,218.4,285.6,218.7,285.3,218.9z M290.1,230.7h-1.9v-14.1h1.9V230.7z M300,230.7
			c0,0-0.1-0.1-0.2-0.2c-0.1-0.1-0.1-0.3-0.2-0.4c0-0.1-0.1-0.3-0.1-0.5c-0.1,0.2-0.3,0.3-0.5,0.5c-0.4,0.3-0.8,0.5-1.3,0.6
			c-0.5,0.1-1.1,0.2-1.7,0.2c-0.7,0-1.4-0.1-1.9-0.3c-0.5-0.2-1-0.6-1.3-1s-0.4-0.9-0.4-1.5c0-0.6,0.2-1.2,0.5-1.6s0.8-0.7,1.4-1
			c0.6-0.2,1.3-0.4,2-0.5c1.1-0.1,1.9-0.2,2.4-0.3c0.5-0.1,0.7-0.3,0.7-0.5c0,0,0,0,0,0c0-0.5-0.2-0.9-0.6-1.1
			c-0.4-0.3-1-0.4-1.8-0.4c-0.8,0-1.4,0.1-1.9,0.4c-0.4,0.3-0.7,0.7-0.7,1.4h-1.9c0-0.7,0.2-1.4,0.6-1.9c0.4-0.5,0.9-0.9,1.6-1.2
			c0.7-0.3,1.4-0.4,2.3-0.4c0.8,0,1.5,0.1,2.2,0.4c0.7,0.2,1.2,0.6,1.6,1.1c0.4,0.5,0.6,1.1,0.6,1.8c0,0.1,0,0.2,0,0.4s0,0.2,0,0.4
			v3.8c0,0.2,0,0.4,0,0.6c0,0.2,0.1,0.4,0.1,0.6c0.1,0.2,0.1,0.3,0.2,0.5c0.1,0.1,0.1,0.2,0.2,0.3H300z M262.6,109.1V84.5
			l48.7,121.6h-9.2L262.6,109.1z M312.8,228.6c-0.4,0.7-0.9,1.3-1.6,1.7c-0.7,0.4-1.4,0.6-2.2,0.6c-0.7,0-1.4-0.2-2.1-0.6
			c-0.4-0.2-0.7-0.5-1-0.8v1.2h-2v-14.1h2v5.7c0.3-0.3,0.6-0.6,1-0.8c0.6-0.4,1.3-0.5,2.1-0.5c0.8,0,1.5,0.2,2.2,0.6
			s1.2,0.9,1.6,1.7c0.4,0.7,0.6,1.6,0.6,2.7C313.4,226.9,313.2,227.9,312.8,228.6z M317.6,230.7h-1.9v-14.1h1.9V230.7z M329.7,226.3
			c0,0.2,0,0.3,0,0.3h-7.9c0.1,0.4,0.1,0.8,0.3,1.1c0.3,0.5,0.6,0.9,1.1,1.2c0.5,0.3,1,0.4,1.7,0.4c0.5,0,0.9,0,1.2-0.1
			c0.3-0.1,0.6-0.2,0.8-0.4c0.2-0.2,0.4-0.3,0.5-0.5c0.1-0.2,0.2-0.4,0.2-0.5h1.9c0,0.4-0.2,0.8-0.4,1.2c-0.2,0.4-0.5,0.7-0.9,1
			c-0.4,0.3-0.9,0.6-1.5,0.7c-0.6,0.2-1.2,0.3-2,0.3c-1,0-1.9-0.2-2.6-0.6s-1.3-1-1.8-1.8c-0.4-0.7-0.6-1.6-0.6-2.6
			c0-1,0.2-1.8,0.6-2.6c0.4-0.7,1-1.3,1.8-1.7c0.8-0.4,1.6-0.6,2.6-0.6c1,0,1.9,0.2,2.6,0.6c0.7,0.4,1.3,1,1.7,1.7
			c0.4,0.7,0.6,1.6,0.6,2.5C329.8,226,329.7,226.1,329.7,226.3z M335,206.1h-18.3L262.4,70.6l0,0l0,0l0,0c0,0,0-0.1,0-0.1
			c0-0.1-0.1-0.1-0.1-0.2c0,0,0-0.1-0.1-0.1c0,0,0,0,0-0.1c0,0,0,0,0-0.1c0,0-0.1-0.1-0.1-0.1c0,0-0.1-0.1-0.1-0.1c0,0,0,0-0.1-0.1
			c0,0,0,0,0-0.1c0,0,0,0,0,0c0,0,0,0-0.1-0.1l0,0c0,0-0.1-0.1-0.1-0.1c0,0,0,0-0.1,0c0,0-0.1,0-0.1-0.1c0,0-0.1-0.1-0.1-0.1
			c0,0-0.1,0-0.1-0.1c-0.1,0-0.1-0.1-0.2-0.1c0,0-0.1,0-0.1-0.1c0,0,0,0-0.1,0l0,0l0,0L148.9,29c0,0,0,0-0.1,0c0,0-0.1,0-0.1,0
			c0,0-0.1,0-0.1,0c-0.1,0-0.1,0-0.2,0c0,0,0,0,0,0l0,0c0,0,0,0,0,0c0,0-0.1,0-0.1,0c0,0-0.1,0-0.1,0c-0.1,0-0.1,0-0.2,0
			c0,0-0.1,0-0.1,0c0,0-0.1,0-0.1,0l0,0c0,0,0,0-0.1,0h0h0c-0.1,0-0.1,0-0.2,0c0,0-0.1,0-0.1,0l0,0l0,0c0,0,0,0,0,0c0,0-0.1,0-0.1,0
			c0,0-0.1,0-0.1,0l0,0c0,0-0.1,0-0.1,0c0,0,0,0-0.1,0l0,0c0,0-0.1,0-0.1,0c0,0-0.1,0-0.1,0.1c0,0,0,0-0.1,0c0,0,0,0,0,0l0,0
			c0,0,0,0,0,0c0,0,0,0-0.1,0c0,0-0.1,0-0.1,0.1c0,0,0,0-0.1,0.1c0,0,0,0,0,0c0,0-0.1,0.1-0.1,0.1c0,0,0,0-0.1,0.1c0,0,0,0,0,0
			L74,107.9l0,0c-0.1,0.1-0.2,0.2-0.2,0.3l0,0c0,0,0,0.1,0,0.1c0,0.1-0.1,0.1-0.1,0.2c0,0,0,0.1,0,0.1c0,0,0,0.1,0,0.1
			c0,0.1,0,0.1-0.1,0.2c0,0,0,0.1,0,0.1c0,0,0,0.1,0,0.1c0,0.1,0,0.1,0,0.2s0,0.1,0,0.2c0,0,0,0.1,0,0.1v38.1v0l0,0
			c0,0.1,0,0.3,0,0.4c0,0,0,0,0,0c0,0,0,0.1,0,0.1c0,0.1,0,0.2,0.1,0.2l0,0l31.6,87.9H5V220h35.9c1.4,0,2.5-1.1,2.5-2.5
			c0-1.4-1.1-2.5-2.5-2.5H5v-16.5h20.2c1.4,0,2.5-1.1,2.5-2.5c0-1.4-1.1-2.5-2.5-2.5H5V177h20.2c1.4,0,2.5-1.1,2.5-2.5
			c0-1.4-1.1-2.5-2.5-2.5H5v-16.5h35.9c1.4,0,2.5-1.1,2.5-2.5c0-1.4-1.1-2.5-2.5-2.5H5V134h20.2c1.4,0,2.5-1.1,2.5-2.5
			c0-1.4-1.1-2.5-2.5-2.5H5v-16.5h20.2c1.4,0,2.5-1.1,2.5-2.5c0-1.4-1.1-2.5-2.5-2.5H5V91h35.9c1.4,0,2.5-1.1,2.5-2.5
			c0-1.4-1.1-2.5-2.5-2.5H5V69.5h20.2c1.4,0,2.5-1.1,2.5-2.5c0-1.4-1.1-2.5-2.5-2.5H5V48h20.2c1.4,0,2.5-1.1,2.5-2.5
			c0-1.4-1.1-2.5-2.5-2.5H5V26.5h35.9c1.4,0,2.5-1.1,2.5-2.5c0-1.4-1.1-2.5-2.5-2.5H5V5h330V206.1z"/>
		<path class="st0" d="M276.3,226.4c-0.8,0.1-1.4,0.2-1.8,0.4s-0.6,0.6-0.6,1c0,0.5,0.2,0.8,0.5,1c0.3,0.2,0.9,0.3,1.6,0.3
			c0.6,0,1.1-0.1,1.5-0.3s0.8-0.4,1.1-0.8c0.3-0.4,0.4-0.8,0.4-1.4V226c-0.3,0.1-0.6,0.2-0.9,0.2
			C277.5,226.3,276.9,226.3,276.3,226.4z"/>
		<polygon class="st0" points="254.7,225.7 258.2,225.7 256.5,218.6 		"/>
		<path class="st0" d="M217.9,226.4c-0.8,0.1-1.4,0.2-1.8,0.4s-0.6,0.6-0.6,1c0,0.5,0.2,0.8,0.5,1c0.3,0.2,0.9,0.3,1.6,0.3
			c0.6,0,1.1-0.1,1.5-0.3s0.8-0.4,1.1-0.8c0.3-0.4,0.4-0.8,0.4-1.4V226c-0.3,0.1-0.6,0.2-0.9,0.2C219,226.3,218.5,226.3,217.9,226.4
			z"/>
		<path class="st0" d="M242.1,222.9c-0.4-0.2-0.9-0.4-1.6-0.4s-1.2,0.1-1.6,0.4s-0.8,0.6-1.1,1.1c-0.1,0.3-0.2,0.6-0.3,0.9h5.8
			c0-0.4-0.1-0.8-0.3-1.1C242.8,223.5,242.5,223.2,242.1,222.9z"/>
		<path class="st0" d="M227.8,226.7c0.4,0.2,0.8,0.3,1.4,0.3c0.5,0,1-0.1,1.3-0.3s0.7-0.4,0.9-0.7s0.3-0.7,0.3-1.2
			c0-0.5-0.1-0.8-0.3-1.2s-0.5-0.6-0.9-0.8c-0.4-0.2-0.8-0.3-1.3-0.3c-0.5,0-0.9,0.1-1.3,0.3c-0.4,0.2-0.7,0.4-0.9,0.8
			s-0.3,0.7-0.3,1.2s0.1,0.8,0.3,1.2C227.1,226.3,227.4,226.5,227.8,226.7z"/>
	</g>
</g>
</svg>
