<?xml version="1.0" encoding="utf-8"?>
<!-- Generator: Adobe Illustrator 25.0.0, SVG Export Plug-In . SVG Version: 6.00 Build 0)  -->
<svg version="1.1" id="Layer_1" xmlns="http://www.w3.org/2000/svg" xmlns:xlink="http://www.w3.org/1999/xlink" x="0px" y="0px"
	 viewBox="0 0 340 241.8" style="enable-background:new 0 0 340 241.8;" xml:space="preserve">
<style type="text/css">
	.st0{fill:#FFFFFF;}
</style>
<path class="st0" d="M337,0H3C1.3,0,0,1.3,0,3v235.8c0,1.7,1.3,3,3,3h334c1.7,0,3-1.3,3-3V3C340,1.3,338.7,0,337,0z M199,131.9
	l-27-56.9l32.7-0.1l33.8,23.6l15.1,10.5L199,131.9z M171.3,155.9l-25.7-10.3l3-62.5l17.2-7.1l28.1,59.1L171.3,155.9z M139.6,144.6
	l-58.1,0.2l12-19.4l16.3-26.3l32.7-13.5L139.6,144.6z M79.1,137.2v-25.5l21.3-8.8L94,113.3L79.1,137.2z M256.8,74.8V104l-41.4-29
	l-0.2-0.1l22.8-0.1L256.8,74.8z M163.2,70.5L149,76.4l1.6-32.6L163.2,70.5z M142.8,78.9l-27.6,11.4l29.3-47.2L142.8,78.9z M196.2,69
	L175,69.1l-5.8,0l-13.5-28.4l12,8.4L196.2,69z M105.8,94.3l-6.3,2.6l-12,4.9l41.4-44.9L105.8,94.3z M314.4,235.8l-51.6-126.6V87.4
	l59.5,148.4H314.4z M242.7,68.9L206.6,69l-26.9-18.8l-11.4-8l47,16.8L242.7,68.9z M110.9,235.8l-30.6-85l61.6-0.2l27.7,11.1
	l26.1,74.1H110.9z M202,235.8l-26.6-75.5l23.7-21.9l59-24.6l17.4,42.8l32.3,79.3L202,235.8z M334,235.8h-5.3L262.6,70.7l0,0
	c0,0,0-0.1-0.1-0.1l0,0c0-0.1-0.1-0.2-0.1-0.3c0,0,0-0.1-0.1-0.1c0,0,0,0,0,0c0,0-0.1-0.1-0.1-0.1c0-0.1-0.1-0.1-0.1-0.2
	c0,0-0.1-0.1-0.1-0.1c0,0,0,0,0-0.1c0,0,0,0,0,0c0,0-0.1,0-0.1-0.1c0,0-0.1-0.1-0.1-0.1s-0.1-0.1-0.1-0.1c0,0-0.1-0.1-0.1-0.1
	c0,0,0,0-0.1,0c0,0-0.1,0-0.1-0.1c-0.1,0-0.1-0.1-0.2-0.1S261,69,260.9,69c0,0,0,0-0.1,0L149.1,28.9c0,0,0,0,0,0c0,0,0,0,0,0
	c0,0,0,0-0.1,0c0,0,0,0,0,0c0,0-0.1,0-0.1,0c0,0,0,0,0,0c-0.1,0-0.1,0-0.2,0c0,0-0.1,0-0.1,0l-0.1,0c0,0,0,0-0.1,0c0,0-0.1,0-0.1,0
	l0,0l0,0h0c0,0,0,0-0.1,0s0,0-0.1,0c0,0-0.1,0-0.1,0l0,0l-0.1,0c-0.2,0-0.4,0-0.6,0.1l0,0c-0.1,0-0.2,0.1-0.3,0.1l0,0
	c-0.1,0-0.1,0-0.2,0.1l0,0c-0.1,0-0.1,0.1-0.2,0.1l0,0l0,0l0,0c0,0,0,0,0,0c-0.1,0-0.1,0.1-0.2,0.1l0,0c0,0,0,0,0,0c0,0,0,0-0.1,0
	c0,0,0,0,0,0l0,0c0,0,0,0,0,0l0,0c0,0,0,0,0,0c0,0-0.1,0.1-0.1,0.1c0,0,0,0-0.1,0.1l-72,78l0,0c-0.1,0.1-0.2,0.2-0.3,0.4l0,0
	c0,0,0,0.1-0.1,0.1c-0.1,0.1-0.1,0.2-0.1,0.3c0,0,0,0.1,0,0.1c0,0,0,0.1,0,0.1c0,0.1-0.1,0.2-0.1,0.2c0,0.1,0,0.1,0,0.2
	c0,0,0,0.1,0,0.1c0,0.1,0,0.1,0,0.2s0,0.1,0,0.2c0,0,0,0.1,0,0.1v38c0,0.1,0,0.2,0,0.4c0,0,0,0,0,0.1l0,0c0,0,0,0,0,0
	c0,0,0,0.1,0,0.1c0,0.1,0.1,0.3,0.1,0.4l0,0l0,0l0,0L96,212.1l8.5,23.6H6v-15.4h35.3c1.7,0,3-1.3,3-3s-1.3-3-3-3H6v-15.4h19.6
	c1.7,0,3-1.3,3-3s-1.3-3-3-3H6v-15.4h19.6c1.7,0,3-1.3,3-3s-1.3-3-3-3H6V156h35.3c1.7,0,3-1.3,3-3s-1.3-3-3-3H6v-15.4h19.6
	c1.7,0,3-1.3,3-3s-1.3-3-3-3H6v-15.4h19.6c1.7,0,3-1.3,3-3s-1.3-3-3-3H6V91.7h35.3c1.7,0,3-1.3,3-3s-1.3-3-3-3H6V70.3h19.6
	c1.7,0,3-1.3,3-3s-1.3-3-3-3H6V48.9h19.6c1.7,0,3-1.3,3-3s-1.3-3-3-3H6V27.4h35.3c1.7,0,3-1.3,3-3s-1.3-3-3-3H6V6h328L334,235.8z"/>
</svg>
